<mxfile host="app.diagrams.net" agent="Mozilla/5.0 (Windows NT 10.0; Win64; x64) AppleWebKit/537.36 (KHTML, like Gecko) Chrome/138.0.0.0 Safari/537.36 Edg/138.0.0.0" version="28.0.4">
  <diagram name="Page-1" id="hf1HTnL9-bggoP4JaQQ-">
    <mxGraphModel dx="1426" dy="789" grid="1" gridSize="10" guides="1" tooltips="1" connect="1" arrows="1" fold="1" page="1" pageScale="1" pageWidth="850" pageHeight="1100" math="0" shadow="0">
      <root>
        <mxCell id="0" />
        <mxCell id="1" parent="0" />
        <mxCell id="UuiZ6nBaDw5FhJv0AdDv-5" value="&lt;b&gt;EntiTrack UI App (Blazor)&lt;/b&gt;&lt;div&gt;&lt;b&gt;&lt;font style=&quot;font-size: 10px;&quot;&gt;&amp;lt;&amp;lt;Web Application&amp;gt;&amp;gt;&lt;/font&gt;&lt;/b&gt;&lt;/div&gt;" style="html=1;dropTarget=0;whiteSpace=wrap;" vertex="1" parent="1">
          <mxGeometry x="296.25" y="160" width="180" height="90" as="geometry" />
        </mxCell>
        <mxCell id="UuiZ6nBaDw5FhJv0AdDv-6" value="" style="shape=module;jettyWidth=8;jettyHeight=4;" vertex="1" parent="UuiZ6nBaDw5FhJv0AdDv-5">
          <mxGeometry x="1" width="20" height="20" relative="1" as="geometry">
            <mxPoint x="-27" y="7" as="offset" />
          </mxGeometry>
        </mxCell>
        <mxCell id="UuiZ6nBaDw5FhJv0AdDv-49" value="&amp;lt;&amp;lt;depends&amp;gt;&amp;gt;" style="endArrow=open;html=1;rounded=0;align=center;verticalAlign=bottom;dashed=1;endFill=0;labelBackgroundColor=none;exitX=0.5;exitY=1;exitDx=0;exitDy=0;entryX=0.5;entryY=0;entryDx=0;entryDy=0;" edge="1" parent="1" source="UuiZ6nBaDw5FhJv0AdDv-5" target="UuiZ6nBaDw5FhJv0AdDv-55">
          <mxGeometry relative="1" as="geometry">
            <mxPoint x="350" y="223" as="sourcePoint" />
            <mxPoint x="425.5" y="300" as="targetPoint" />
          </mxGeometry>
        </mxCell>
        <mxCell id="UuiZ6nBaDw5FhJv0AdDv-50" value="" style="resizable=0;html=1;align=center;verticalAlign=top;labelBackgroundColor=none;" connectable="0" vertex="1" parent="UuiZ6nBaDw5FhJv0AdDv-49">
          <mxGeometry relative="1" as="geometry" />
        </mxCell>
        <mxCell id="UuiZ6nBaDw5FhJv0AdDv-55" value="EntiTrack API&amp;nbsp;&lt;div&gt;&amp;lt;&amp;lt;Rest API&amp;gt;&amp;gt;&lt;/div&gt;" style="swimlane;whiteSpace=wrap;html=1;startSize=40;swimlaneLine=0;expand=0;collapsible=0;" vertex="1" parent="1">
          <mxGeometry x="192.5" y="310" width="387.5" height="230" as="geometry">
            <mxRectangle x="255" y="370" width="140" height="40" as="alternateBounds" />
          </mxGeometry>
        </mxCell>
        <mxCell id="UuiZ6nBaDw5FhJv0AdDv-56" value="" style="shape=module;jettyWidth=8;jettyHeight=4;" vertex="1" parent="UuiZ6nBaDw5FhJv0AdDv-55">
          <mxGeometry x="360" y="10" width="20" height="20" as="geometry" />
        </mxCell>
        <mxCell id="UuiZ6nBaDw5FhJv0AdDv-61" value="&lt;b&gt;Flask-RESTx&lt;/b&gt;" style="html=1;dropTarget=0;whiteSpace=wrap;" vertex="1" parent="UuiZ6nBaDw5FhJv0AdDv-55">
          <mxGeometry x="7.5" y="50" width="122.5" height="50" as="geometry" />
        </mxCell>
        <mxCell id="UuiZ6nBaDw5FhJv0AdDv-62" value="" style="shape=module;jettyWidth=8;jettyHeight=4;" vertex="1" parent="UuiZ6nBaDw5FhJv0AdDv-61">
          <mxGeometry x="1" width="20" height="20" relative="1" as="geometry">
            <mxPoint x="-27" y="7" as="offset" />
          </mxGeometry>
        </mxCell>
        <mxCell id="UuiZ6nBaDw5FhJv0AdDv-17" value="&lt;b&gt;LangChain&lt;/b&gt;" style="html=1;dropTarget=0;whiteSpace=wrap;" vertex="1" parent="UuiZ6nBaDw5FhJv0AdDv-55">
          <mxGeometry x="137.5" y="50" width="122.5" height="50" as="geometry" />
        </mxCell>
        <mxCell id="UuiZ6nBaDw5FhJv0AdDv-18" value="" style="shape=module;jettyWidth=8;jettyHeight=4;" vertex="1" parent="UuiZ6nBaDw5FhJv0AdDv-17">
          <mxGeometry x="1" width="20" height="20" relative="1" as="geometry">
            <mxPoint x="-27" y="7" as="offset" />
          </mxGeometry>
        </mxCell>
        <mxCell id="UuiZ6nBaDw5FhJv0AdDv-30" value="&lt;b&gt;Google GenAI API&lt;/b&gt;" style="html=1;dropTarget=0;whiteSpace=wrap;" vertex="1" parent="UuiZ6nBaDw5FhJv0AdDv-55">
          <mxGeometry x="137.5" y="140" width="140" height="70" as="geometry" />
        </mxCell>
        <mxCell id="UuiZ6nBaDw5FhJv0AdDv-31" value="" style="shape=module;jettyWidth=8;jettyHeight=4;" vertex="1" parent="UuiZ6nBaDw5FhJv0AdDv-30">
          <mxGeometry x="1" width="20" height="20" relative="1" as="geometry">
            <mxPoint x="-27" y="7" as="offset" />
          </mxGeometry>
        </mxCell>
        <mxCell id="UuiZ6nBaDw5FhJv0AdDv-58" value="&amp;lt;&amp;lt;depends&amp;gt;&amp;gt;" style="endArrow=open;html=1;rounded=0;align=center;verticalAlign=bottom;dashed=1;endFill=0;labelBackgroundColor=none;exitX=0.5;exitY=1;exitDx=0;exitDy=0;entryX=0.5;entryY=0;entryDx=0;entryDy=0;" edge="1" parent="UuiZ6nBaDw5FhJv0AdDv-55" source="UuiZ6nBaDw5FhJv0AdDv-17" target="UuiZ6nBaDw5FhJv0AdDv-30">
          <mxGeometry relative="1" as="geometry">
            <mxPoint x="527.5" y="-20" as="sourcePoint" />
            <mxPoint x="527.5" y="30" as="targetPoint" />
          </mxGeometry>
        </mxCell>
        <mxCell id="UuiZ6nBaDw5FhJv0AdDv-59" value="" style="resizable=0;html=1;align=center;verticalAlign=top;labelBackgroundColor=none;" connectable="0" vertex="1" parent="UuiZ6nBaDw5FhJv0AdDv-58">
          <mxGeometry relative="1" as="geometry" />
        </mxCell>
        <mxCell id="UuiZ6nBaDw5FhJv0AdDv-64" value="&lt;b&gt;SpaCy&lt;/b&gt;" style="html=1;dropTarget=0;whiteSpace=wrap;" vertex="1" parent="UuiZ6nBaDw5FhJv0AdDv-55">
          <mxGeometry x="267.5" y="50" width="105" height="50" as="geometry" />
        </mxCell>
        <mxCell id="UuiZ6nBaDw5FhJv0AdDv-65" value="" style="shape=module;jettyWidth=8;jettyHeight=4;" vertex="1" parent="UuiZ6nBaDw5FhJv0AdDv-64">
          <mxGeometry x="1" width="20" height="20" relative="1" as="geometry">
            <mxPoint x="-27" y="7" as="offset" />
          </mxGeometry>
        </mxCell>
      </root>
    </mxGraphModel>
  </diagram>
</mxfile>
